<svg width="16" height="9" viewBox="0 0 16 9" fill="none" xmlns="http://www.w3.org/2000/svg">
<path d="M15.141 0.700706C15.2322 0.78639 15.3046 0.888177 15.3539 1.00024C15.4033 1.1123 15.4287 1.23244 15.4287 1.35377C15.4287 1.4751 15.4033 1.59523 15.3539 1.7073C15.3046 1.81936 15.2322 1.92115 15.141 2.00683L8.55255 8.21279C8.48007 8.2812 8.39398 8.33547 8.29921 8.3725C8.20444 8.40953 8.10285 8.42859 8.00024 8.42859C7.89764 8.42859 7.79605 8.40953 7.70128 8.3725C7.6065 8.33547 7.52042 8.2812 7.44794 8.21279L0.859471 2.00683C0.4756 1.64525 0.4756 1.06229 0.859471 0.700706C1.24334 0.339123 1.86224 0.339123 2.24611 0.700706L7.99633 6.11708L13.7544 0.693326C14.1383 0.339123 14.7571 0.339123 15.141 0.700706Z" fill="#FF5900"/>
</svg>
