<svg width="19" height="25" viewBox="0 0 19 25" fill="none" xmlns="http://www.w3.org/2000/svg">
<path d="M9.4987 19.2291C10.1065 19.2291 10.6894 18.9876 11.1192 18.5579C11.5489 18.1281 11.7904 17.5452 11.7904 16.9374C11.7904 16.3296 11.5489 15.7467 11.1192 15.317C10.6894 14.8872 10.1065 14.6458 9.4987 14.6458C8.89091 14.6458 8.30802 14.8872 7.87824 15.317C7.44847 15.7467 7.20703 16.3296 7.20703 16.9374C7.20703 17.5452 7.44847 18.1281 7.87824 18.5579C8.30802 18.9876 8.89091 19.2291 9.4987 19.2291ZM16.3737 8.91658C16.9815 8.91658 17.5644 9.15803 17.9942 9.5878C18.4239 10.0176 18.6654 10.6005 18.6654 11.2083V22.6666C18.6654 23.2744 18.4239 23.8573 17.9942 24.287C17.5644 24.7168 16.9815 24.9583 16.3737 24.9583H2.6237C2.01591 24.9583 1.43302 24.7168 1.00324 24.287C0.573474 23.8573 0.332031 23.2744 0.332031 22.6666V11.2083C0.332031 10.6005 0.573474 10.0176 1.00324 9.5878C1.43302 9.15803 2.01591 8.91658 2.6237 8.91658H3.76953V6.62492C3.76953 5.10545 4.37314 3.64821 5.44757 2.57379C6.52199 1.49936 7.97923 0.895752 9.4987 0.895752C10.2511 0.895752 10.9961 1.04394 11.6912 1.33186C12.3862 1.61978 13.0178 2.04178 13.5498 2.57379C14.0818 3.10579 14.5038 3.73737 14.7918 4.43246C15.0797 5.12756 15.2279 5.87255 15.2279 6.62492V8.91658H16.3737ZM9.4987 3.18742C8.58702 3.18742 7.71267 3.54958 7.06802 4.19424C6.42336 4.8389 6.0612 5.71324 6.0612 6.62492V8.91658H12.9362V6.62492C12.9362 5.71324 12.574 4.8389 11.9294 4.19424C11.2847 3.54958 10.4104 3.18742 9.4987 3.18742Z" fill="#2A007C"/>
</svg>
