<svg width="23" height="26" viewBox="0 0 23 26" fill="none" xmlns="http://www.w3.org/2000/svg">
<path d="M11.4993 22.7109C8.61548 22.7109 5.36308 22.0713 2.79928 21.0032C1.85892 20.6071 1.05354 19.9664 0.395232 19.4607C0.362577 19.4357 0.323586 19.4204 0.282668 19.4164C0.241749 19.4124 0.200535 19.42 0.163685 19.4382C0.126834 19.4564 0.0958165 19.4846 0.0741389 19.5195C0.0524612 19.5545 0.0409877 19.5948 0.0410157 19.6359V20.3289C0.0410157 21.8752 1.33504 23.2607 3.68454 24.2302C5.78615 25.0979 8.56149 25.5755 11.4993 25.5755C14.4372 25.5755 17.212 25.0979 19.3141 24.2302C21.6636 23.2618 22.9577 21.8752 22.9577 20.3289V19.6359C22.9577 19.5948 22.9462 19.5545 22.9245 19.5195C22.9029 19.4846 22.8718 19.4564 22.835 19.4382C22.7981 19.42 22.7569 19.4124 22.716 19.4164C22.6751 19.4204 22.6361 19.4357 22.6035 19.4607C21.9451 19.9658 21.1398 20.6071 20.1989 21.0032C17.6351 22.0713 14.3832 22.7109 11.4993 22.7109ZM22.9577 6.10237C22.913 4.57919 21.6256 3.21576 19.3219 2.25447C17.2142 1.37857 14.4377 0.895996 11.4993 0.895996C8.56094 0.895996 5.7845 1.37857 3.68179 2.25447C1.38021 3.21355 0.0927985 4.57423 0.0459736 6.09356L0.0410157 7.06586C0.0410157 7.41898 0.327474 7.97372 0.846955 8.42819C1.46009 8.9642 2.37014 9.49305 3.47906 9.95579C5.83849 10.9419 8.83693 11.528 11.4993 11.528C14.1617 11.528 17.1602 10.9397 19.5196 9.95358C20.6285 9.49084 21.5386 8.962 22.1517 8.42599C22.6712 7.97427 22.9577 7.41953 22.9577 7.06586V6.10237Z" fill="#2A007C"/>
<path d="M20.1989 11.583C17.6356 12.6534 14.3832 13.2908 11.4994 13.2908C8.61549 13.2908 5.36309 12.6534 2.79929 11.583C1.85894 11.1892 1.05355 10.5479 0.395245 10.0406C0.362441 10.0155 0.323246 10.0001 0.282129 9.99622C0.241012 9.99233 0.19963 10.0001 0.162701 10.0186C0.125772 10.0371 0.0947842 10.0656 0.073271 10.1008C0.0517577 10.1361 0.0405854 10.1767 0.0410283 10.218V11.9136C0.0410283 12.2667 0.327486 12.7112 0.846967 13.1657C1.4601 13.7023 2.37015 14.2306 3.47908 14.6939C5.8385 15.6783 8.83695 16.2655 11.4994 16.2655C14.1618 16.2655 17.1602 15.6772 19.5196 14.6917C20.6286 14.2284 21.5386 13.7001 22.1517 13.1635C22.6712 12.7107 22.9577 12.2667 22.9577 11.9136V10.218C22.9577 10.1768 22.9462 10.1365 22.9246 10.1016C22.9029 10.0667 22.8719 10.0385 22.835 10.0203C22.7982 10.0021 22.7569 9.99451 22.716 9.99848C22.6751 10.0025 22.6361 10.0178 22.6035 10.0428C21.9452 10.5479 21.1398 11.1892 20.1989 11.583Z" fill="#2A007C"/>
<path d="M20.1989 16.3208C17.6351 17.39 14.3832 18.0285 11.4993 18.0285C8.61548 18.0285 5.36308 17.39 2.79928 16.3208C1.85893 15.9258 1.05354 15.2846 0.395236 14.7783C0.362506 14.7533 0.323413 14.7379 0.282396 14.734C0.241379 14.73 0.200081 14.7377 0.163192 14.7561C0.126302 14.7744 0.0952996 14.8027 0.0737038 14.8378C0.052108 14.8729 0.0407846 14.9134 0.0410192 14.9546V16.5962C0.0410192 16.9493 0.327477 17.3933 0.846407 17.8473C1.45954 18.3838 2.37014 18.9121 3.47907 19.3754C5.83849 20.3598 8.83639 20.9482 11.4993 20.9482C14.1623 20.9482 17.1602 20.3598 19.5196 19.3743C20.6285 18.911 21.5386 18.3827 22.1517 17.8462C22.6712 17.3917 22.9577 16.9471 22.9577 16.5962V14.9546C22.9577 14.9135 22.9462 14.8732 22.9245 14.8382C22.9029 14.8033 22.8719 14.7751 22.835 14.7569C22.7982 14.7387 22.7569 14.7311 22.716 14.7351C22.6751 14.7391 22.6361 14.7544 22.6035 14.7794C21.9452 15.2846 21.1398 15.9258 20.1989 16.3208Z" fill="#2A007C"/>
</svg>
