<svg width="29" height="20" viewBox="0 0 29 20" fill="none" xmlns="http://www.w3.org/2000/svg">
<path d="M10.0015 20C9.53376 19.998 9.08529 19.8133 8.75172 19.4854L0.517688 11.2513C0.186218 10.9199 0 10.4703 0 10.0015C0 9.53276 0.186218 9.08319 0.517688 8.75172C0.849158 8.42025 1.29873 8.23403 1.7675 8.23403C2.23627 8.23403 2.68584 8.42025 3.01731 8.75172L10.0015 15.7359L25.2198 0.517688C25.3839 0.353561 25.5788 0.223368 25.7932 0.134543C26.0076 0.0457179 26.2375 0 26.4696 0C26.7017 0 26.9315 0.0457179 27.146 0.134543C27.3604 0.223368 27.5553 0.353561 27.7194 0.517688C27.8835 0.681815 28.0137 0.876663 28.1026 1.09111C28.1914 1.30555 28.2371 1.53539 28.2371 1.7675C28.2371 1.99961 28.1914 2.22945 28.1026 2.44389C28.0137 2.65833 27.8835 2.85318 27.7194 3.01731L11.2513 19.4854C10.9178 19.8133 10.4693 19.998 10.0015 20Z" fill="#00AB44"/>
</svg>
