<svg width="8" height="15" viewBox="0 0 8 15" fill="none" xmlns="http://www.w3.org/2000/svg">
<path d="M0.272117 0.287695C0.357801 0.1965 0.459588 0.124146 0.571652 0.0747788C0.683715 0.0254114 0.803852 0 0.92518 0C1.04651 0 1.16665 0.0254114 1.27871 0.0747788C1.39077 0.124146 1.49256 0.1965 1.57824 0.287695L7.7842 6.87616C7.85261 6.94864 7.90688 7.03473 7.94391 7.1295C7.98094 7.22427 8 7.32587 8 7.42847C8 7.53107 7.98094 7.63266 7.94391 7.72743C7.90688 7.82221 7.85261 7.90829 7.7842 7.98077L1.57824 14.5692C1.21666 14.9531 0.633701 14.9531 0.272117 14.5692C-0.0894661 14.1854 -0.0894661 13.5665 0.272117 13.1826L5.68849 7.43238L0.264738 1.67433C-0.0894661 1.29046 -0.0894661 0.671565 0.272117 0.287695Z" fill="#FF5900"/>
</svg>
