<svg width="21" height="20" viewBox="0 0 21 20" fill="none" xmlns="http://www.w3.org/2000/svg">
<path d="M19.528 3.03245C19.6952 2.87111 19.8286 2.67808 19.9204 2.46463C20.0122 2.25118 20.0606 2.02159 20.0627 1.78924C20.0649 1.55689 20.0207 1.32645 19.9328 1.11136C19.8449 0.89626 19.7151 0.700822 19.5509 0.536444C19.3867 0.372066 19.1913 0.24204 18.9763 0.153953C18.7613 0.0658657 18.5309 0.0214823 18.2986 0.023391C18.0662 0.0252998 17.8366 0.0734628 17.623 0.16507C17.4095 0.256678 17.2163 0.389895 17.0548 0.556949L10.0413 7.56815L3.03012 0.556949C2.86992 0.385025 2.67673 0.247129 2.46208 0.151487C2.24743 0.0558458 2.01571 0.00441788 1.78075 0.000272328C1.54579 -0.00387323 1.31241 0.0393486 1.09452 0.127358C0.876628 0.215368 0.678696 0.346364 0.51253 0.51253C0.346364 0.678696 0.215368 0.876627 0.127358 1.09452C0.0393486 1.31241 -0.00387323 1.5458 0.000272328 1.78075C0.00441788 2.01571 0.0558458 2.24743 0.151487 2.46208C0.247129 2.67673 0.385025 2.86992 0.556949 3.03012L7.56348 10.0436L0.552283 17.0548C0.243184 17.3866 0.0749069 17.8253 0.0829056 18.2787C0.0909042 18.732 0.274554 19.1645 0.595163 19.4851C0.915772 19.8057 1.34831 19.9894 1.80165 19.9974C2.25499 20.0054 2.69373 19.8371 3.02545 19.528L10.0413 12.5168L17.0525 19.5303C17.3842 19.8394 17.823 20.0077 18.2763 19.9997C18.7297 19.9917 19.1622 19.8081 19.4828 19.4875C19.8034 19.1669 19.9871 18.7343 19.9951 18.281C20.0031 17.8276 19.8348 17.3889 19.5257 17.0572L12.5192 10.0436L19.528 3.03245Z" fill="#E10000"/>
</svg>
