<?xml version="1.0" encoding="utf-8"?><svg xmlns="http://www.w3.org/2000/svg" xmlns:xlink="http://www.w3.org/1999/xlink"><symbol viewBox="0 0 8 15" id="arrow-right" xmlns="http://www.w3.org/2000/svg"><path d="M.272.288a.921.921 0 01.3-.213.876.876 0 011.006.213l6.206 6.588a.822.822 0 010 1.105l-6.206 6.588a.885.885 0 01-1.306 0 1.022 1.022 0 010-1.386l5.416-5.75-5.423-5.76A1.03 1.03 0 01.272.288z"/></symbol><symbol viewBox="0 0 28 28" id="call" xmlns="http://www.w3.org/2000/svg"><path d="M28 19.45v6.84c0 .476-.192.931-.534 1.262a1.582 1.582 0 01-1.17.446 27.438 27.438 0 01-18.257-8.036A27.438 27.438 0 01.001 1.703 1.58 1.58 0 01.448.533 1.76 1.76 0 011.71 0h6.84a1.69 1.69 0 011.662 1.442l.904 6.324a1.688 1.688 0 01-.475 1.425l-2.683 2.683a.564.564 0 00-.094.683 22.965 22.965 0 007.578 7.578c.223.129.504.09.684-.094l2.682-2.682a1.686 1.686 0 011.426-.475l6.324.903A1.689 1.689 0 0128 19.45z"/></symbol><symbol viewBox="0 0 21 20" id="close" xmlns="http://www.w3.org/2000/svg"><path d="M19.528 3.032A1.75 1.75 0 1017.055.557L10.04 7.568 3.031.557A1.75 1.75 0 10.556 3.03l7.006 7.014-7.01 7.01a1.75 1.75 0 002.472 2.474l7.016-7.011 7.011 7.013a1.75 1.75 0 002.474-2.473l-7.007-7.013 7.009-7.012z"/></symbol><symbol viewBox="0 0 27 27" id="close-line" xmlns="http://www.w3.org/2000/svg"><path d="M26 26L1 1m25 0L1 26"/></symbol><symbol viewBox="0 0 16 9" id="down" xmlns="http://www.w3.org/2000/svg"><path d="M15.141.7a.92.92 0 01.213.3.876.876 0 010 .707.92.92 0 01-.213.3L8.553 8.213a.822.822 0 01-1.105 0L.859 2.007A.885.885 0 01.86.7a1.022 1.022 0 011.387 0l5.75 5.416L13.754.693a1.03 1.03 0 011.387.008z"/></symbol><symbol viewBox="0 0 27 27" id="fill-check" xmlns="http://www.w3.org/2000/svg"><path d="M11.4 19.8L21.975 9.225l-2.1-2.1L11.4 15.6l-4.275-4.275-2.1 2.1L11.4 19.8zM3 27a2.89 2.89 0 01-2.12-.882A2.883 2.883 0 010 24V3C0 2.175.294 1.468.882.88A2.883 2.883 0 013 0h21a2.89 2.89 0 012.12.882C26.706 1.47 27 2.176 27 3v21a2.89 2.89 0 01-.882 2.12A2.883 2.883 0 0124 27H3z"/></symbol><symbol viewBox="0 0 8 15" id="next" xmlns="http://www.w3.org/2000/svg"><path d="M.272.288a.921.921 0 01.3-.213.876.876 0 011.006.213l6.206 6.588a.822.822 0 010 1.105l-6.206 6.588a.885.885 0 01-1.306 0 1.022 1.022 0 010-1.386l5.416-5.75-5.423-5.76A1.03 1.03 0 01.272.288z"/></symbol><symbol viewBox="0 0 21 20" id="no" xmlns="http://www.w3.org/2000/svg"><path d="M19.528 3.032A1.75 1.75 0 1017.055.557L10.04 7.568 3.031.557A1.75 1.75 0 10.556 3.03l7.006 7.014-7.01 7.01a1.75 1.75 0 002.472 2.474l7.016-7.011 7.011 7.013a1.75 1.75 0 002.474-2.473l-7.007-7.013 7.009-7.012z"/></symbol><symbol viewBox="0 0 30 26" id="service-0" xmlns="http://www.w3.org/2000/svg"><path d="M3.933 4.079A3.183 3.183 0 017.116.896H24.09a3.183 3.183 0 013.183 3.183v10.61a3.183 3.183 0 01-3.183 3.182h-8.488V9.384A5.305 5.305 0 0010.3 4.079H4.994a4.26 4.26 0 00-1.061.133V4.08zm24.402 18.036H15.603v-2.122h12.732a1.06 1.06 0 110 2.122zM3.933 6.201A3.183 3.183 0 00.75 9.384v12.731a3.183 3.183 0 003.183 3.183h6.366a3.183 3.183 0 003.183-3.183V9.384A3.183 3.183 0 0010.299 6.2H3.933zm3.183 15.914a1.06 1.06 0 110-2.122 1.06 1.06 0 010 2.122z"/></symbol><symbol viewBox="0 0 30 21" id="service-1" xmlns="http://www.w3.org/2000/svg"><path d="M19.847 10.213c-1.227 0-2.413-.522-3.342-1.471a5.566 5.566 0 01-1.552-3.475c-.103-1.403.345-2.693 1.262-3.633s2.2-1.446 3.632-1.446c1.422 0 2.708.516 3.622 1.453.924.947 1.373 2.234 1.27 3.625a5.582 5.582 0 01-1.552 3.475c-.927.95-2.112 1.473-3.34 1.473zm7.867 10.027H11.98a1.72 1.72 0 01-.73-.159 1.641 1.641 0 01-.583-.45 1.685 1.685 0 01-.333-.7 1.645 1.645 0 01.02-.768c.502-1.926 1.747-3.524 3.6-4.62 1.643-.971 3.736-1.507 5.893-1.507 2.2 0 4.237.513 5.89 1.484 1.858 1.09 3.104 2.697 3.604 4.646.067.252.072.515.018.769a1.69 1.69 0 01-.335.7 1.64 1.64 0 01-.581.447 1.72 1.72 0 01-.729.158zm-19.145-9.8c-2.1 0-3.947-1.864-4.118-4.154-.085-1.174.298-2.259 1.074-3.055.768-.788 1.85-1.222 3.044-1.222 1.193 0 2.268.437 3.04 1.23.781.801 1.163 1.884 1.073 3.048-.17 2.29-2.017 4.153-4.113 4.153zm3.918 1.792c-1.05-.49-2.412-.735-3.918-.735-1.758 0-3.465.438-4.808 1.232-1.522.902-2.546 2.215-2.96 3.8a1.506 1.506 0 00.286 1.331 1.5 1.5 0 00.532.41c.208.097.436.147.667.146H8.91c.112 0 .22-.038.306-.106a.452.452 0 00.164-.269c.006-.036.015-.071.024-.107.506-1.94 1.692-3.58 3.444-4.775a.464.464 0 00.151-.171.439.439 0 00-.021-.434.468.468 0 00-.167-.157 4.888 4.888 0 00-.324-.165z"/></symbol><symbol viewBox="0 0 19 25" id="service-2" xmlns="http://www.w3.org/2000/svg"><path d="M9.499 19.23a2.292 2.292 0 100-4.585 2.292 2.292 0 000 4.584zm6.875-10.313a2.292 2.292 0 012.291 2.291v11.459a2.292 2.292 0 01-2.291 2.291H2.624a2.292 2.292 0 01-2.292-2.291V11.208a2.292 2.292 0 012.292-2.291H3.77V6.625a5.73 5.73 0 1111.458 0v2.292h1.146zm-6.875-5.73A3.437 3.437 0 006.06 6.625v2.292h6.875V6.625A3.438 3.438 0 009.5 3.187z"/></symbol><symbol viewBox="0 0 23 26" id="service-3" xmlns="http://www.w3.org/2000/svg"><path d="M11.5 22.71c-2.885 0-6.137-.639-8.7-1.707-.941-.396-1.746-1.037-2.405-1.542a.22.22 0 00-.354.175v.693c0 1.546 1.294 2.932 3.644 3.901 2.101.868 4.876 1.346 7.814 1.346 2.938 0 5.713-.478 7.815-1.346 2.35-.968 3.644-2.355 3.644-3.901v-.693a.22.22 0 00-.354-.175c-.659.505-1.464 1.146-2.405 1.542-2.564 1.068-5.816 1.708-8.7 1.708zM22.957 6.103c-.045-1.523-1.332-2.886-3.636-3.848C17.214 1.38 14.438.896 11.499.896c-2.938 0-5.715.483-7.817 1.358-2.302.96-3.59 2.32-3.636 3.84l-.005.972c0 .353.286.908.806 1.362.613.536 1.523 1.065 2.632 1.528 2.36.986 5.358 1.572 8.02 1.572 2.663 0 5.661-.588 8.02-1.574 1.11-.463 2.02-.992 2.633-1.528.52-.452.806-1.006.806-1.36v-.964z"/><path d="M20.199 11.583c-2.563 1.07-5.816 1.708-8.7 1.708-2.884 0-6.136-.638-8.7-1.708-.94-.394-1.745-1.035-2.404-1.542a.22.22 0 00-.354.177v1.696c0 .353.286.797.806 1.252.613.536 1.523 1.065 2.632 1.528 2.36.984 5.358 1.571 8.02 1.571 2.663 0 5.661-.588 8.02-1.573 1.11-.464 2.02-.992 2.633-1.528.52-.453.806-.897.806-1.25v-1.696a.221.221 0 00-.242-.22.22.22 0 00-.113.045c-.658.505-1.463 1.146-2.404 1.54z"/><path d="M20.199 16.32c-2.564 1.07-5.816 1.709-8.7 1.709-2.884 0-6.136-.639-8.7-1.708-.94-.395-1.745-1.036-2.404-1.543a.22.22 0 00-.354.177v1.641c0 .353.286.797.805 1.251.614.537 1.524 1.065 2.633 1.528 2.36.985 5.357 1.573 8.02 1.573 2.663 0 5.661-.588 8.02-1.574 1.11-.463 2.02-.991 2.633-1.528.52-.454.806-.899.806-1.25v-1.641a.22.22 0 00-.354-.176c-.659.506-1.464 1.147-2.405 1.542z"/></symbol><symbol viewBox="0 0 17 16" id="tg" xmlns="http://www.w3.org/2000/svg"><path d="M16.336 1.143l-2.98 12.295a.924.924 0 01-1.321.602l-3.77-1.947-1.782 2.918c-.484.796-1.712.45-1.712-.48V11.28a.93.93 0 01.287-.666l7.345-7.02c-.006-.087-.1-.163-.193-.099L3.445 9.601.5 8.08c-.69-.357-.66-1.357.053-1.667L15.073.079a.922.922 0 011.263 1.064z"/></symbol><symbol viewBox="0 0 16 16" id="wa" xmlns="http://www.w3.org/2000/svg"><path fill-rule="evenodd" clip-rule="evenodd" d="M7.727 0A7.722 7.722 0 000 7.727C0 9.34.491 10.83 1.364 12.11c.066.098.084.22.049.332L.628 15.07l2.572-.89a.386.386 0 01.332.042 7.682 7.682 0 004.195 1.232 7.72 7.72 0 007.728-7.728A7.72 7.72 0 007.727 0zM4.564 3.369l1.407 2.324-.586.58a.386.386 0 00-.06.464c.893 1.548 1.952 2.752 3.435 3.405a.386.386 0 00.428-.078l.622-.622 2.27 1.419c-.251.566-.579.902-.954 1.098-.434.228-.964.27-1.57.145-1.21-.25-2.672-1.202-3.863-2.42-1.191-1.22-2.113-2.701-2.348-3.907-.118-.602-.066-1.122.157-1.533.191-.354.517-.658 1.062-.875z"/></symbol><symbol viewBox="0 0 29 20" id="yes" xmlns="http://www.w3.org/2000/svg"><path d="M10.002 20a1.794 1.794 0 01-1.25-.515L.518 11.251a1.767 1.767 0 112.5-2.5l6.984 6.985L25.22.518a1.768 1.768 0 112.5 2.5L11.25 19.484a1.794 1.794 0 01-1.25.515z"/></symbol></svg>