<svg width="615" height="612" viewBox="0 0 615 612" fill="none" xmlns="http://www.w3.org/2000/svg">
<path d="M453.319 219.485L307.255 73.5691L26.7493 354.889C-6.07135 328.731 -8.71182 294.504 18.9513 266.767C102.08 183.391 185.325 100.13 268.684 16.9843C290.894 -5.22513 323.172 -5.89143 345.603 16.3921C412.774 82.9875 479.682 149.854 546.327 216.993C546.981 217.697 547.583 218.448 548.129 219.238L307.674 459.816L235.765 387.068C258.542 360.17 274.311 345.289 307.181 366.24L453.319 219.485Z" fill="#2A007C"/>
<path d="M309.006 539.425L588.574 259.314C617.594 277.773 622.85 317.676 599.333 341.489C548.893 392.571 497.959 443.159 447.223 493.945C413.909 527.292 380.578 560.631 347.231 593.961C324.257 616.911 292.818 617.997 269.769 595.171C202.524 528.542 135.822 461.396 68.8972 394.446C68.4777 394.027 68.1816 393.459 68.379 393.731L308.29 153.77L379.854 225.827C371.39 233.65 363.321 243.299 353.228 249.888C340.889 257.982 326.774 257.291 314.04 248.851C309.722 245.964 306.933 244.557 302.393 249.147C256.575 295.211 210.61 341.21 164.497 387.142C163.222 388.54 162.036 390.015 160.943 391.559L309.006 539.425Z" fill="#FF5900"/>
</svg>
