<svg width="67" height="18" viewBox="0 0 67 18" fill="none" xmlns="http://www.w3.org/2000/svg">
<path d="M0 0.132596H1.83207V7.8674H0V0.132596Z" fill="black"/>
<path d="M5.35059 1.59116H2.81737V0.132596H9.71588V1.59116H7.18266V7.8674H5.35059V1.59116Z" fill="black"/>
<path d="M14.3797 8C13.573 8 12.8417 7.83057 12.1858 7.49171C11.5374 7.14549 11.0247 6.67035 10.6477 6.0663C10.2783 5.45488 10.0936 4.76611 10.0936 4C10.0936 3.23389 10.2783 2.5488 10.6477 1.94475C11.0247 1.33333 11.5374 0.858195 12.1858 0.519337C12.8417 0.173112 13.5768 0 14.391 0C15.0771 0 15.6953 0.117864 16.2457 0.353591C16.8036 0.589319 17.2711 0.928177 17.648 1.37017L16.4719 2.43094C15.9366 1.82689 15.2731 1.52486 14.4815 1.52486C13.9914 1.52486 13.5542 1.63168 13.1697 1.8453C12.7851 2.05157 12.4836 2.34254 12.2649 2.71823C12.0538 3.09392 11.9483 3.52118 11.9483 4C11.9483 4.47882 12.0538 4.90608 12.2649 5.28177C12.4836 5.65746 12.7851 5.95212 13.1697 6.16575C13.5542 6.37201 13.9914 6.47514 14.4815 6.47514C15.2731 6.47514 15.9366 6.16943 16.4719 5.55801L17.648 6.61878C17.2711 7.06814 16.8036 7.41068 16.2457 7.64641C15.6878 7.88214 15.0658 8 14.3797 8Z" fill="black"/>
<path d="M34.053 0.132596L31.4632 7.8674H29.4954L27.7538 2.62983L25.9557 7.8674H23.9992L21.3981 0.132596H23.298L25.0849 5.56906L26.9509 0.132596H28.6472L30.4567 5.61326L32.3001 0.132596H34.053Z" fill="black"/>
<path d="M38.8101 8C37.9883 8 37.2457 7.82689 36.5822 7.48066C35.9263 7.13444 35.4098 6.6593 35.0329 6.05525C34.6634 5.44383 34.4787 4.75875 34.4787 4C34.4787 3.24125 34.6634 2.55985 35.0329 1.9558C35.4098 1.34438 35.9263 0.865562 36.5822 0.519337C37.2457 0.173112 37.9883 0 38.8101 0C39.6319 0 40.3707 0.173112 41.0267 0.519337C41.6826 0.865562 42.199 1.34438 42.576 1.9558C42.953 2.55985 43.1415 3.24125 43.1415 4C43.1415 4.75875 42.953 5.44383 42.576 6.05525C42.199 6.6593 41.6826 7.13444 41.0267 7.48066C40.3707 7.82689 39.6319 8 38.8101 8ZM38.8101 6.47514C39.2775 6.47514 39.6997 6.37201 40.0767 6.16575C40.4537 5.95212 40.7477 5.65746 40.9588 5.28177C41.1774 4.90608 41.2868 4.47882 41.2868 4C41.2868 3.52118 41.1774 3.09392 40.9588 2.71823C40.7477 2.34254 40.4537 2.05157 40.0767 1.8453C39.6997 1.63168 39.2775 1.52486 38.8101 1.52486C38.3426 1.52486 37.9204 1.63168 37.5435 1.8453C37.1665 2.05157 36.8687 2.34254 36.6501 2.71823C36.439 3.09392 36.3334 3.52118 36.3334 4C36.3334 4.47882 36.439 4.90608 36.6501 5.28177C36.8687 5.65746 37.1665 5.95212 37.5435 6.16575C37.9204 6.37201 38.3426 6.47514 38.8101 6.47514Z" fill="black"/>
<path d="M49.5622 7.8674L48.0354 5.71271H46.3504V7.8674H44.5183V0.132596H47.945C48.6461 0.132596 49.253 0.246777 49.7657 0.475138C50.2859 0.703499 50.6855 1.02762 50.9645 1.44751C51.2434 1.8674 51.3829 2.36464 51.3829 2.93923C51.3829 3.51381 51.2397 4.01105 50.9532 4.43094C50.6742 4.84346 50.2746 5.16022 49.7544 5.38122L51.5299 7.8674H49.5622ZM49.5282 2.93923C49.5282 2.5046 49.385 2.17311 49.0985 1.94475C48.812 1.70902 48.3936 1.59116 47.8432 1.59116H46.3504V4.28729H47.8432C48.3936 4.28729 48.812 4.16943 49.0985 3.9337C49.385 3.69797 49.5282 3.36648 49.5282 2.93923Z" fill="black"/>
<path d="M55.7183 4.82873L54.6552 5.9116V7.8674H52.8344V0.132596H54.6552V3.74586L58.161 0.132596H60.1966L56.917 3.58011L60.3889 7.8674H58.2515L55.7183 4.82873Z" fill="black"/>
<path d="M63.6412 8C63.0155 8 62.4085 7.91897 61.8205 7.75691C61.2399 7.58748 60.7725 7.37017 60.4181 7.10497L61.0401 5.75691C61.3794 6 61.7828 6.19521 62.2502 6.34254C62.7176 6.48987 63.1851 6.56354 63.6525 6.56354C64.1727 6.56354 64.5573 6.48987 64.8061 6.34254C65.0549 6.18785 65.1792 5.98527 65.1792 5.73481C65.1792 5.55064 65.1039 5.39963 64.9531 5.28177C64.8098 5.15654 64.6213 5.05709 64.3876 4.98343C64.1614 4.90976 63.8523 4.82873 63.4603 4.74033C62.8571 4.60037 62.3633 4.46041 61.9788 4.32044C61.5943 4.18048 61.2625 3.9558 60.9836 3.64641C60.7122 3.33702 60.5765 2.92449 60.5765 2.40884C60.5765 1.95948 60.7009 1.55433 60.9497 1.19337C61.1985 0.825046 61.5717 0.53407 62.0693 0.320442C62.5744 0.106814 63.1889 0 63.9126 0C64.4178 0 64.9116 0.0589318 65.3941 0.176795C65.8766 0.294659 66.2988 0.464088 66.6607 0.685083L66.0953 2.0442C65.364 1.63904 64.6326 1.43646 63.9013 1.43646C63.3887 1.43646 63.0079 1.5175 62.7591 1.67956C62.5178 1.84162 62.3972 2.05525 62.3972 2.32044C62.3972 2.58564 62.5367 2.78453 62.8157 2.91713C63.1022 3.04236 63.5357 3.16759 64.1162 3.29282C64.7193 3.43278 65.2132 3.57274 65.5977 3.71271C65.9822 3.85267 66.3101 4.07366 66.5816 4.37569C66.8605 4.67772 67 5.08656 67 5.60221C67 6.0442 66.8718 6.44936 66.6155 6.81768C66.3667 7.17864 65.9897 7.46593 65.4846 7.67956C64.9795 7.89319 64.365 8 63.6412 8Z" fill="black"/>
<path d="M13.5312 17.8443L13.5257 15.2961L12.2626 17.4049H11.9441L10.681 15.329V17.8443H10V14H10.5876L12.1143 16.5482L13.6136 14H14.2012L14.2067 17.8443H13.5312Z" fill="#232323"/>
<path d="M17.7384 16.9546H15.8162L15.4373 17.8443H14.7014L16.4313 14H17.1343L18.8697 17.8443H18.1228L17.7384 16.9546ZM17.5022 16.3944L16.7773 14.7139L16.0579 16.3944H17.5022Z" fill="#232323"/>
<path d="M20.6821 16.2352L20.0725 16.8612V17.8443H19.3586V14H20.0725V15.9716L21.9727 14H22.7745L21.1599 15.7189L22.8733 17.8443H22.0386L20.6821 16.2352Z" fill="#232323"/>
<path d="M26.2427 17.2457V17.8443H23.3595V14H26.1658V14.5986H24.0734V15.5981H25.9296V16.1857H24.0734V17.2457H26.2427Z" fill="#232323"/>
<path d="M28.5563 14H29.2702V17.8443H28.5563V14Z" fill="#232323"/>
<path d="M31.0899 14.6041H29.8158V14H33.0779V14.6041H31.8038V17.8443H31.0899V14.6041Z" fill="#232323"/>
<path d="M37.8554 15.8452C38.0677 15.9148 38.2361 16.032 38.3606 16.1967C38.4851 16.3578 38.5473 16.5592 38.5473 16.8008C38.5473 17.134 38.4192 17.3921 38.1629 17.5752C37.9066 17.7546 37.5332 17.8443 37.0426 17.8443H35.1314V14H36.9327C37.3867 14 37.7364 14.0897 37.9817 14.2691C38.227 14.4448 38.3496 14.6883 38.3496 14.9995C38.3496 15.1899 38.3057 15.3583 38.2178 15.5048C38.13 15.6512 38.0091 15.7647 37.8554 15.8452ZM35.8454 14.5602V15.6201H36.8559C37.1048 15.6201 37.2952 15.5761 37.427 15.4883C37.5625 15.3967 37.6302 15.2649 37.6302 15.0929C37.6302 14.9171 37.5625 14.7853 37.427 14.6975C37.2952 14.6059 37.1048 14.5602 36.8559 14.5602H35.8454ZM36.9986 17.2841C37.5515 17.2841 37.8279 17.0992 37.8279 16.7294C37.8279 16.3596 37.5515 16.1748 36.9986 16.1748H35.8454V17.2841H36.9986Z" fill="#232323"/>
<path d="M42.1925 17.2457V17.8443H39.3093V14H42.1156V14.5986H40.0232V15.5981H41.8794V16.1857H40.0232V17.2457H42.1925Z" fill="#232323"/>
<path d="M43.7682 14.6041H42.4941V14H45.7562V14.6041H44.4821V17.8443H43.7682V14.6041Z" fill="#232323"/>
<path d="M47.1255 14.6041H45.8514V14H49.1135V14.6041H47.8394V17.8443H47.1255V14.6041Z" fill="#232323"/>
<path d="M52.5325 17.2457V17.8443H49.6493V14H52.4556V14.5986H50.3633V15.5981H52.2195V16.1857H50.3633V17.2457H52.5325Z" fill="#232323"/>
<path d="M55.8436 17.8443L55.0583 16.7184C55.0254 16.7221 54.9759 16.7239 54.91 16.7239H54.0423V17.8443H53.3284V14H54.91C55.2432 14 55.5324 14.0549 55.7777 14.1648C56.0267 14.2746 56.2171 14.432 56.3489 14.637C56.4807 14.8421 56.5466 15.0855 56.5466 15.3675C56.5466 15.6567 56.4752 15.9057 56.3324 16.1143C56.1933 16.323 55.9919 16.4786 55.7283 16.5811L56.6125 17.8443H55.8436ZM55.8272 15.3675C55.8272 15.1222 55.7466 14.9336 55.5855 14.8018C55.4244 14.67 55.1883 14.6041 54.8771 14.6041H54.0423V16.1363H54.8771C55.1883 16.1363 55.4244 16.0704 55.5855 15.9386C55.7466 15.8031 55.8272 15.6128 55.8272 15.3675Z" fill="#232323"/>
</svg>
