<svg width="15" height="8" viewBox="0 0 15 8" fill="none" xmlns="http://www.w3.org/2000/svg">
<path d="M14.5697 0.272117C14.6609 0.357801 14.7333 0.459588 14.7826 0.571652C14.832 0.683715 14.8574 0.803852 14.8574 0.92518C14.8574 1.04651 14.832 1.16665 14.7826 1.27871C14.7333 1.39077 14.6609 1.49256 14.5697 1.57824L7.98126 7.7842C7.90878 7.85261 7.82269 7.90688 7.72792 7.94391C7.63315 7.98094 7.53156 8 7.42896 8C7.32635 8 7.22476 7.98094 7.12999 7.94391C7.03522 7.90688 6.94913 7.85261 6.87665 7.7842L0.288182 1.57824C-0.0956887 1.21666 -0.0956887 0.633701 0.288182 0.272117C0.672052 -0.0894663 1.29095 -0.0894663 1.67482 0.272117L7.42504 5.68849L13.1831 0.264738C13.567 -0.0894661 14.1859 -0.0894661 14.5697 0.272117Z" fill="#FF5900"/>
</svg>
