<svg width="27" height="27" viewBox="0 0 27 27" fill="none" xmlns="http://www.w3.org/2000/svg">
<path d="M11.4 19.8L21.975 9.225L19.875 7.125L11.4 15.6L7.125 11.325L5.025 13.425L11.4 19.8ZM3 27C2.175 27 1.4685 26.706 0.880502 26.118C0.292502 25.53 -0.000997453 24.824 2.54669e-06 24V3C2.54669e-06 2.175 0.294003 1.4685 0.882002 0.880502C1.47 0.292502 2.176 -0.000997453 3 2.54669e-06H24C24.825 2.54669e-06 25.5315 0.294003 26.1195 0.882002C26.7075 1.47 27.001 2.176 27 3V24C27 24.825 26.706 25.5315 26.118 26.1195C25.53 26.7075 24.824 27.001 24 27H3Z" fill="#2A007C"/>
</svg>
9C17.9974 24.9138 17.783 25 17.5607 25L17.561 24.9999Z" fill="white"/>
</svg>
