<svg width="36" height="36" viewBox="0 0 36 36" fill="none" xmlns="http://www.w3.org/2000/svg">
<path d="M26.5742 12.8665L18.0117 4.31272L1.56808 20.8041C-0.355911 19.2707 -0.510699 17.2642 1.11095 15.6382C5.9841 10.7506 10.864 5.86975 15.7506 0.995644C17.0526 -0.306304 18.9447 -0.345364 20.2597 0.960925C24.1974 4.86484 28.1196 8.78467 32.0264 12.7204C32.0647 12.7617 32.1 12.8057 32.132 12.8521L18.0363 26.955L13.8209 22.6904C15.1561 21.1136 16.0805 20.2413 18.0073 21.4695L26.5742 12.8665Z" fill="#2A007C"/>
<path d="M18.1143 31.6218L34.503 15.2013C36.2042 16.2834 36.5123 18.6225 35.1337 20.0185C32.1768 23.013 29.191 25.9785 26.2168 28.9557C24.2639 30.9105 22.31 32.8649 20.3551 34.8188C19.0083 36.1641 17.1653 36.2278 15.8142 34.8897C11.8722 30.9838 7.96201 27.0476 4.03881 23.1229C4.01421 23.0983 3.99686 23.0651 4.00843 23.081L18.0724 9.01416L22.2675 13.2383C21.7713 13.6968 21.2983 14.2625 20.7066 14.6487C19.9833 15.1232 19.1559 15.0827 18.4094 14.5879C18.1563 14.4187 17.9928 14.3362 17.7266 14.6053C15.0408 17.3056 12.3462 20.0021 9.64297 22.6947C9.56828 22.7767 9.49871 22.8632 9.43466 22.9537L18.1143 31.6218Z" fill="#FF5900"/>
</svg>
