<svg width="30" height="21" viewBox="0 0 30 21"  xmlns="http://www.w3.org/2000/svg">
<path d="M19.8471 10.2135C18.6201 10.2135 17.4337 9.69058 16.5051 8.74153C15.6021 7.81583 15.0507 6.58137 14.9534 5.2666C14.8496 3.86409 15.2978 2.57438 16.215 1.63444C17.1323 0.694498 18.4148 0.1875 19.8471 0.1875C21.2692 0.1875 22.5553 0.703612 23.4695 1.64127C24.3928 2.58805 24.8421 3.87548 24.7383 5.26603C24.6386 6.58251 24.0878 7.8164 23.1867 8.74096C22.2605 9.69058 21.0746 10.2135 19.8471 10.2135ZM27.7145 20.2396H11.9802C11.7273 20.2409 11.4774 20.1867 11.2497 20.0814C11.0221 19.976 10.8229 19.8222 10.6673 19.6317C10.5023 19.4253 10.3883 19.1859 10.334 18.9315C10.2796 18.6771 10.2863 18.4142 10.3534 18.1626C10.8559 16.2366 12.1008 14.6392 13.9532 13.5438C15.5973 12.5719 17.6903 12.0364 19.8471 12.0364C22.0462 12.0364 24.0842 12.5491 25.7379 13.5204C27.5945 14.6102 28.8412 16.2166 29.3413 18.166C29.4076 18.4178 29.4135 18.6807 29.3586 18.935C29.3036 19.1892 29.1892 19.4284 29.0238 19.6346C28.8684 19.8241 28.6696 19.9772 28.4427 20.0821C28.2157 20.1869 27.9666 20.2408 27.7145 20.2396ZM8.56782 10.4414C6.46773 10.4414 4.62128 8.57746 4.45 6.28686C4.36526 5.11336 4.74839 4.02815 5.52421 3.23234C6.29168 2.4445 7.37425 2.01041 8.56782 2.01041C9.76138 2.01041 10.8356 2.44677 11.6072 3.23917C12.389 4.04126 12.771 5.12418 12.6815 6.288C12.5102 8.57803 10.6643 10.4414 8.56782 10.4414ZM12.4863 12.233C11.4366 11.7431 10.0741 11.4981 8.56841 11.4981C6.81028 11.4981 5.10288 11.9356 3.76012 12.7297C2.23772 13.6315 1.21363 14.9446 0.800062 16.5299C0.739539 16.758 0.733815 16.9961 0.783317 17.2265C0.832819 17.457 0.936267 17.6738 1.08592 17.8607C1.22793 18.0347 1.40985 18.1753 1.6177 18.2717C1.82555 18.368 2.05379 18.4176 2.28486 18.4166H8.90918C9.02098 18.4166 9.12924 18.3792 9.21507 18.3108C9.3009 18.2424 9.35886 18.1474 9.37885 18.0424C9.38541 18.0065 9.39377 17.9706 9.40331 17.9353C9.90939 15.995 11.0952 14.3555 12.8474 13.1604C12.9118 13.116 12.9636 13.057 12.9982 12.9888C13.0327 12.9205 13.0488 12.845 13.0451 12.7693C13.0414 12.6935 13.0179 12.6199 12.9768 12.555C12.9357 12.4901 12.8783 12.436 12.8098 12.3976C12.7161 12.3452 12.6086 12.2899 12.4863 12.233Z" />
</svg>
