<svg width="30" height="26" viewBox="0 0 30 26"  xmlns="http://www.w3.org/2000/svg">
<path d="M3.93287 4.07881C3.93287 3.23466 4.26821 2.42508 4.86511 1.82818C5.46202 1.23127 6.27159 0.895935 7.11574 0.895935H24.091C24.9352 0.895935 25.7448 1.23127 26.3417 1.82818C26.9386 2.42508 27.2739 3.23466 27.2739 4.07881V14.6884C27.2739 15.5325 26.9386 16.3421 26.3417 16.939C25.7448 17.5359 24.9352 17.8712 24.091 17.8712H15.6034V9.38359C15.6034 7.97667 15.0445 6.62738 14.0497 5.63254C13.0548 4.6377 11.7055 4.07881 10.2986 4.07881H4.99383C4.62674 4.07881 4.27238 4.12549 3.93287 4.21249V4.07881ZM28.3349 22.1151H15.6034V19.9932H28.3349C28.6163 19.9932 28.8861 20.1049 29.0851 20.3039C29.2841 20.5029 29.3958 20.7727 29.3958 21.0541C29.3958 21.3355 29.2841 21.6054 29.0851 21.8043C28.8861 22.0033 28.6163 22.1151 28.3349 22.1151ZM3.93287 6.20072C3.08872 6.20072 2.27915 6.53606 1.68224 7.13296C1.08534 7.72986 0.75 8.53944 0.75 9.38359V22.1151C0.75 22.9592 1.08534 23.7688 1.68224 24.3657C2.27915 24.9626 3.08872 25.2979 3.93287 25.2979H10.2986C11.1428 25.2979 11.9523 24.9626 12.5492 24.3657C13.1461 23.7688 13.4815 22.9592 13.4815 22.1151V9.38359C13.4815 8.53944 13.1461 7.72986 12.5492 7.13296C11.9523 6.53606 11.1428 6.20072 10.2986 6.20072H3.93287ZM7.11574 22.1151C6.83436 22.1151 6.5645 22.0033 6.36553 21.8043C6.16656 21.6054 6.05478 21.3355 6.05478 21.0541C6.05478 20.7727 6.16656 20.5029 6.36553 20.3039C6.5645 20.1049 6.83436 19.9932 7.11574 19.9932C7.39712 19.9932 7.66698 20.1049 7.86595 20.3039C8.06492 20.5029 8.1767 20.7727 8.1767 21.0541C8.1767 21.3355 8.06492 21.6054 7.86595 21.8043C7.66698 22.0033 7.39712 22.1151 7.11574 22.1151Z"/>
</svg>
